<svg xmlns="http://www.w3.org/2000/svg" xmlns:xlink="http://www.w3.org/1999/xlink" width="124" height="115" viewBox="0 0 124 115">
  <defs>
    <clipPath id="clip-path">
      <rect id="Rectangle_15" data-name="Rectangle 15" width="124" height="115" transform="translate(1396 137)" fill="#233d6e"/>
    </clipPath>
  </defs>
  <g id="Mask_Group_2" data-name="Mask Group 2" transform="translate(-1396 -137)" clip-path="url(#clip-path)">
    <g id="gift" transform="translate(1395.751 154)" opacity="0.1">
      <g id="Group_1" data-name="Group 1" transform="translate(0 0)">
        <path id="Path_1" data-name="Path 1" d="M132.256,33.984H114.969A21.229,21.229,0,0,0,97.988,0C90.933,0,85.731,2.528,81.617,7.954c-3.442,4.54-5.959,10.88-9.117,18.889-3.157-8.01-5.674-14.349-9.117-18.889C59.269,2.528,54.067,0,47.012,0A21.229,21.229,0,0,0,30.031,33.984H12.744A12.759,12.759,0,0,0,0,46.729v8.5A12.764,12.764,0,0,0,8.5,67.238v65.018A12.759,12.759,0,0,0,21.24,145H123.76A12.759,12.759,0,0,0,136.5,132.256V67.238A12.764,12.764,0,0,0,145,55.225v-8.5A12.759,12.759,0,0,0,132.256,33.984ZM80.3,30.229C86.805,13.719,89.279,8.5,97.988,8.5a12.744,12.744,0,1,1,0,25.488H78.812C79.332,32.677,79.829,31.419,80.3,30.229ZM47.012,8.5c8.709,0,11.183,5.223,17.691,21.733.469,1.19.965,2.448,1.486,3.755H47.012a12.744,12.744,0,0,1,0-25.488Zm8.5,128.008H21.24a4.253,4.253,0,0,1-4.248-4.248V67.969H55.508Zm0-77.031H12.744A4.253,4.253,0,0,1,8.5,55.225v-8.5a4.253,4.253,0,0,1,4.248-4.248H55.508ZM81,136.5H64V42.48H81Zm47.012-4.248a4.253,4.253,0,0,1-4.248,4.248H89.492V67.969h38.516Zm8.5-77.031a4.253,4.253,0,0,1-4.248,4.248H89.492V42.48h42.764a4.253,4.253,0,0,1,4.248,4.248Z" transform="translate(0 0)" fill="#fff"/>
      </g>
    </g>
  </g>
</svg>
