<svg xmlns="http://www.w3.org/2000/svg" width="20.408" height="25.118" viewBox="0 0 20.408 25.118">
  <g id="trash" transform="translate(-48)">
    <path id="Path_7" data-name="Path 7" d="M66.446,3.14H62.129V2.355A2.355,2.355,0,0,0,59.774,0h-3.14a2.355,2.355,0,0,0-2.355,2.355V3.14H49.962A1.962,1.962,0,0,0,48,5.1v1.57a.785.785,0,0,0,.785.785H67.623a.785.785,0,0,0,.785-.785V5.1A1.962,1.962,0,0,0,66.446,3.14Zm-10.6-.785a.786.786,0,0,1,.785-.785h3.14a.786.786,0,0,1,.785.785V3.14h-4.71Z" fill="#89bf60"/>
    <path id="Path_8" data-name="Path 8" d="M73.609,184a.245.245,0,0,0-.245.257l.648,13.591a2.352,2.352,0,0,0,2.352,2.243h11.92a2.352,2.352,0,0,0,2.352-2.243l.648-13.591a.245.245,0,0,0-.245-.257Zm11.854,1.962a.785.785,0,1,1,1.57,0v10.2a.785.785,0,0,1-1.57,0Zm-3.925,0a.785.785,0,1,1,1.57,0v10.2a.785.785,0,0,1-1.57,0Zm-3.925,0a.785.785,0,1,1,1.57,0v10.2a.785.785,0,0,1-1.57,0Z" transform="translate(-24.12 -174.973)" fill="#89bf60"/>
  </g>
</svg>
