<svg xmlns="http://www.w3.org/2000/svg" width="23.999" height="23.999" viewBox="0 0 23.999 23.999">
  <g id="Group_6" data-name="Group 6" transform="translate(0)">
    <circle id="Ellipse_6" data-name="Ellipse 6" cx="11" cy="11" r="11" transform="translate(0.998 0.999)" fill="#fff"/>
    <path id="user_1_" data-name="user (1)" d="M20.484,3.515a12,12,0,0,0-16.97,16.97,12,12,0,0,0,16.97-16.97ZM5.207,20.122A6.865,6.865,0,0,1,12,14.081a6.839,6.839,0,0,1,6.792,6.041,10.571,10.571,0,0,1-13.583,0ZM12,12.633a3.645,3.645,0,1,1,3.645-3.645A3.649,3.649,0,0,1,12,12.633Zm8,6.3a8.266,8.266,0,0,0-5.174-5.763,5.051,5.051,0,1,0-5.654,0A8.259,8.259,0,0,0,4,18.932a10.593,10.593,0,1,1,16.005,0Zm0,0" transform="translate(0)"/>
  </g>
</svg>
