<svg xmlns="http://www.w3.org/2000/svg" width="570.441" height="234.505" viewBox="0 0 570.441 234.505">
  <g id="Group_63" data-name="Group 63" transform="translate(-688.39 -534.715)">
    <path id="Path_121" data-name="Path 121" d="M15,269.208s-29.56-81.444,10-122.952,77.484-54.825,148.242-43.079S248,92.256,310.666,56.923,540.482,14.783,502,146.256c-18.623,63.624,103.7,59.354,65.333,122.952Z" transform="translate(684 499.744)" fill="#e7f4fc"/>
    <g id="Group_56" data-name="Group 56" transform="translate(665.504 492.675)">
      <path id="Path_17" data-name="Path 17" d="M1053.317,427.588s15.558-3.516,19.028-.6,10.254,54.107,10.254,54.107-9.486-20.557-12.355-30.8c-3.014-10.756-16.927-22.708-16.927-22.708" transform="translate(-794.016 -321.001)" fill="#90bcd8"/>
      <path id="Path_18" data-name="Path 18" d="M1050.922,481.252c-.381-.411-39.359-42.489-39.617-46.531-.258-4.06,9.29-8.546,22.054-8.677,0,0-9.4,6.878-9.008,9.265.7,4.275,7.007,7.89,11.952,19.02a240.341,240.341,0,0,0,14.618,26.923" transform="translate(-762.343 -321.162)" fill="#a5d0eb"/>
      <path id="Path_19" data-name="Path 19" d="M934.2,559.651c-.218-.17-2.844-2.2-6.859-5.127l-.012-.008c-12.056-8.783-36.618-25.612-46.247-24.4a36.041,36.041,0,0,0-12.3,4.224l0,0c-8.21,4.449-14.243,11.013-11.73,13.49,3.691,3.637,51.842-1.522,77.161,11.827a.058.058,0,0,0-.013-.01m-62.629-16.7s8.078-3.684,10.9-3.449,23.024,4.781,25.409,6.786-36.307-3.337-36.307-3.337" transform="translate(-645.631 -399.568)" fill="#80afcc"/>
      <path id="Path_20" data-name="Path 20" d="M934.212,572.789c-25.319-13.35-73.47-8.19-77.161-11.827-2.513-2.478,3.52-9.041,11.73-13.49-.1.1-5.046,4.982-.669,6.016,4.038.953,34.408-2.026,59.216,14.158l.012.008a66.665,66.665,0,0,1,6.859,5.127.055.055,0,0,1,.013.01" transform="translate(-645.631 -412.696)" fill="#90bcd8"/>
      <path id="Path_21" data-name="Path 21" d="M1170.869,534.508s12.167-24.042,10.471-37.189a33.666,33.666,0,0,1-3.979,3.786s-2.506-3.756-2.689-4.246l.183.49s-5.025,29.471-3.985,37.16" transform="translate(-882.523 -374.44)" fill="#90bcd8"/>
      <path id="Path_22" data-name="Path 22" d="M1172.264,579.183s10.256-23.349,34.841-23.231c0,0-4.1,3.625-4.127,5.08,0,0,4.38,1.217,5.692,1.364,0,0-21.844,4.125-33.651,17.1Z" transform="translate(-883.682 -419.089)" fill="#90bcd8"/>
      <rect id="Rectangle_16" data-name="Rectangle 16" width="113.835" height="109.289" transform="translate(196.15 167.104)" fill="#90bcd8"/>
      <rect id="Rectangle_17" data-name="Rectangle 17" width="113.835" height="109.289" transform="translate(253.068 167.104)" fill="#a5d0eb"/>
      <rect id="Rectangle_18" data-name="Rectangle 18" width="59.318" height="18.948" transform="translate(193.75 155.871)" fill="#80afcc"/>
      <rect id="Rectangle_19" data-name="Rectangle 19" width="116.152" height="18.948" transform="translate(253.068 155.871)" fill="#8ec0df"/>
      <rect id="Rectangle_20" data-name="Rectangle 20" width="8.799" height="120.674" transform="translate(308.434 155.871)" fill="#80afcc"/>
      <rect id="Rectangle_21" data-name="Rectangle 21" width="8.799" height="120.42" transform="translate(220.21 155.871)" fill="#6fa3c2"/>
      <g id="Group_59" data-name="Group 59" transform="translate(44.865)">
        <path id="Path_24" data-name="Path 24" d="M1768.024,778.747s-7.667-1.733-9.377-.3-5.052,26.662-5.052,26.662,4.674-10.13,6.088-15.177c1.485-5.3,8.341-11.19,8.341-11.19" transform="translate(-1321.903 -586.385)" fill="#90bcd8"/>
        <path id="Path_25" data-name="Path 25" d="M1753.6,805.191c.188-.2,19.395-20.938,19.522-22.929s-4.578-4.212-10.868-4.276c0,0,4.633,3.39,4.44,4.566-.347,2.107-3.453,3.888-5.89,9.373a118.446,118.446,0,0,1-7.2,13.267" transform="translate(-1321.908 -586.464)" fill="#a5d0eb"/>
        <path id="Path_26" data-name="Path 26" d="M1753.6,843.829c12.477-6.578,36.2-4.036,38.023-5.828,1.238-1.221-1.735-4.456-5.78-6.648h0a17.759,17.759,0,0,0-6.06-2.081c-4.745-.6-16.849,7.7-22.789,12.023l-.006,0c-1.979,1.442-3.272,2.443-3.38,2.527l-.007,0m12.977-6.588c1.175-.988,11.131-3.228,12.521-3.344s5.37,1.7,5.37,1.7-19.067,2.632-17.891,1.644" transform="translate(-1321.906 -625.101)" fill="#80afcc"/>
        <path id="Path_27" data-name="Path 27" d="M1753.6,850.3c12.477-6.578,36.2-4.036,38.023-5.828,1.238-1.221-1.735-4.455-5.78-6.648.051.05,2.486,2.455.329,2.964-1.99.47-16.955-1-29.18,6.977l-.006,0a32.918,32.918,0,0,0-3.38,2.526l-.006,0" transform="translate(-1321.906 -631.571)" fill="#90bcd8"/>
        <path id="Path_28" data-name="Path 28" d="M1739.782,848.552s-5.581-8.131-4.534-12.714a13.85,13.85,0,0,0,1.892,1.246s1.292-1.342,1.389-1.515l-.1.172s1.986,10.129,1.35,12.81" transform="translate(-1307.975 -629.836)" fill="#90bcd8"/>
        <path id="Path_29" data-name="Path 29" d="M1664.026,836.908s-8.094-17.127-27.936-16.846c0,0,3.279,2.64,3.291,3.712,0,0-3.545.932-4.605,1.05,0,0,17.6,2.867,27.024,12.333Z" transform="translate(-1232.334 -618.179)" fill="#90bcd8"/>
        <path id="Path_123" data-name="Path 123" d="M0,0H56.1V53.855H0Z" transform="translate(421.145 222.183)" fill="#a5d0eb"/>
        <rect id="Rectangle_23" data-name="Rectangle 23" width="56.253" height="53.855" transform="translate(393.097 222.183)" fill="#90bcd8"/>
        <rect id="Rectangle_24" data-name="Rectangle 24" width="29.231" height="9.337" transform="translate(449.192 216.648)" fill="#8ec0df"/>
        <path id="Path_122" data-name="Path 122" d="M0,0H57.394V9.337H0Z" transform="translate(391.956 216.648)" fill="#80afcc"/>
        <rect id="Rectangle_26" data-name="Rectangle 26" width="4.336" height="59.466" transform="translate(417.573 216.648)" fill="#6fa3c2"/>
        <rect id="Rectangle_27" data-name="Rectangle 27" width="4.336" height="59.34" transform="translate(461.048 216.648)" fill="#80afcc"/>
      </g>
      <path id="Path_31" data-name="Path 31" d="M677.962,847.484s6.13-1.385,7.5-.236,4.04,21.319,4.04,21.319a118.756,118.756,0,0,1-4.868-12.135c-1.187-4.238-6.669-8.948-6.669-8.948" transform="translate(-511.065 -638.332)" fill="#90bcd8"/>
      <path id="Path_32" data-name="Path 32" d="M677.018,868.628c-.15-.162-15.508-16.741-15.609-18.333s3.661-3.367,8.69-3.419c0,0-3.7,2.71-3.549,3.651.277,1.684,2.761,3.109,4.709,7.494a94.635,94.635,0,0,0,5.76,10.608" transform="translate(-498.585 -638.395)" fill="#a5d0eb"/>
      <path id="Path_33" data-name="Path 33" d="M631.029,899.518c-.086-.067-1.121-.867-2.7-2.02l0,0c-4.75-3.461-14.428-10.091-18.222-9.613a14.2,14.2,0,0,0-4.846,1.664h0c-3.235,1.753-5.612,4.339-4.622,5.315,1.454,1.433,20.426-.6,30.4,4.66l0,0m-24.677-6.579s3.183-1.451,4.294-1.359,9.072,1.884,10.012,2.674-14.305-1.315-14.305-1.315" transform="translate(-452.6 -669.288)" fill="#80afcc"/>
      <path id="Path_34" data-name="Path 34" d="M631.033,904.694c-9.976-5.26-28.948-3.227-30.4-4.66-.99-.976,1.387-3.562,4.621-5.315-.041.04-1.988,1.963-.264,2.37,1.591.376,13.557-.8,23.332,5.579l0,0a26.262,26.262,0,0,1,2.7,2.02l0,0" transform="translate(-452.6 -674.461)" fill="#90bcd8"/>
      <path id="Path_35" data-name="Path 35" d="M724.141,903.3s4.463-6.5,3.625-10.166a11.069,11.069,0,0,1-1.513,1s-1.033-1.073-1.111-1.211l.078.138s-1.588,8.1-1.08,10.242" transform="translate(-545.8 -673.073)" fill="#90bcd8"/>
      <path id="Path_36" data-name="Path 36" d="M724.828,893.988s6.471-13.694,22.337-13.47c0,0-2.621,2.11-2.631,2.967,0,0,2.835.745,3.682.84,0,0-14.071,2.292-21.608,9.861Z" transform="translate(-546.393 -663.754)" fill="#a5d0eb"/>
      <rect id="Rectangle_28" data-name="Rectangle 28" width="44.852" height="43.061" transform="translate(142.016 232.996)" fill="#90bcd8"/>
      <rect id="Rectangle_29" data-name="Rectangle 29" width="44.852" height="43.061" transform="translate(164.442 232.996)" fill="#a5d0eb"/>
      <rect id="Rectangle_30" data-name="Rectangle 30" width="23.372" height="7.466" transform="translate(141.069 228.571)" fill="#80afcc"/>
      <rect id="Rectangle_31" data-name="Rectangle 31" width="45.765" height="7.466" transform="translate(164.442 228.571)" fill="#8ec0df"/>
      <rect id="Rectangle_32" data-name="Rectangle 32" width="3.467" height="47.547" transform="translate(186.256 228.57)" fill="#80afcc"/>
      <rect id="Rectangle_33" data-name="Rectangle 33" width="3.467" height="47.447" transform="translate(151.495 228.571)" fill="#6fa3c2"/>
      <g id="Group_60" data-name="Group 60" transform="translate(44.865)">
        <path id="Path_58" data-name="Path 58" d="M1987.674,1054.168c-.156,1.932-2.884,1.932-5.977,1.551s-2.275.407-6.609.436-5.818-1.415-6.023-2.036c-.183-.551,1.908-1,4.145-1.525.281-.065.563-.134.846-.2a11.376,11.376,0,0,0,6.37-4.123c1.88-2.409,3.6-13.377,3.6-13.377l6.772,1.264s-3.942,9.4-4.347,12.484c-.181,1.384.8,2.307,1.033,3.518a7.6,7.6,0,0,1,.191,2.012" transform="translate(-1484.322 -780.125)" fill="#a86857"/>
        <path id="Path_59" data-name="Path 59" d="M1981.683,1108.9c-3.092-.382-2.26.1-6.594.124s-5.818-1.415-6.023-2.036c-.183-.551,1.907-1,4.145-1.525l.026.041a12.145,12.145,0,0,0,6.351,1.186c2.911-.27,5.888-1.462,7.9-1.665a7.6,7.6,0,0,1,.191,2.012c-.156,1.932-2.9,2.244-5.992,1.863" transform="translate(-1484.323 -832.995)" fill="#1f506e"/>
        <path id="Path_60" data-name="Path 60" d="M2049.1,709.94s-3.7,11.9-6.723,23.985c-.306,1.228-.606,2.459-.9,3.678-.656,2.769-1.254,5.484-1.736,8-.208,1.079-.395,2.122-.557,3.119-.166,1.032-.308,2.011-.417,2.928a31.749,31.749,0,0,0-.259,3.921c0,.276.014.538.029.783.687,10.209-11.346,40.423-11.346,40.423a6.911,6.911,0,0,1-3.663.05,11.038,11.038,0,0,1-3.442-1.477,185.791,185.791,0,0,0,3.85-23.933,224.486,224.486,0,0,0,.88-33.649c-.134-2.96-.186-5.726-.178-8.28a118.208,118.208,0,0,1,1.512-20.01c1.229-6.628,22.944.463,22.944.463" transform="translate(-1522.795 -532.687)" fill="#5d95b8"/>
        <path id="Path_62" data-name="Path 62" d="M2098.954,1060.513c-.156,1.932-2.884,1.932-5.976,1.551s-2.275.407-6.61.436-5.818-1.415-6.022-2.036c-.183-.551,1.908-1,4.145-1.525.281-.065.564-.134.846-.2,2.523-.621,4.2-2.494,6.37-4.123,2.052-1.544.616-9.03.616-9.03l6.368-2.275s-.96,7.531-.96,11.675c0,1.4.8,2.307,1.033,3.518a7.58,7.58,0,0,1,.19,2.012" transform="translate(-1568.208 -786.47)" fill="#a86857"/>
        <path id="Path_63" data-name="Path 63" d="M2093.042,1108.871c-3.093-.382-2.34.123-6.674.152s-5.818-1.415-6.022-2.036c-.183-.551,1.907-1,4.145-1.525l.026.041a12.148,12.148,0,0,0,6.351,1.186c2.911-.27,5.888-1.463,7.9-1.665a7.581,7.581,0,0,1,.19,2.012c-.156,1.932-2.819,2.217-5.912,1.835" transform="translate(-1568.208 -832.994)" fill="#1f506e"/>
        <path id="Path_64" data-name="Path 64" d="M2084.791,684.72s7.065,35.21,8.258,54.373,2.683,35.029,2.683,35.029a9.348,9.348,0,0,0,3.311.455,12.183,12.183,0,0,0,3.348-.682s7-28.833,4.683-40.374-.387-22.186.726-31.759c1.6-13.726-4.546-20.106-8.833-24.454-4.34-4.4-14.176,7.412-14.176,7.412" transform="translate(-1571.567 -509.83)" fill="#6fa3c2"/>
        <path id="Path_65" data-name="Path 65" d="M2057.831,406.825c-.7-5.732,1.088-14.905,12.53-13.44s15.047,12.71,12.74,17.71,3.322,6.205,5.089,11.582c1.518,4.618,2.048,10.353,4.5,12.927,7.92,8.3-7.6,21.058-16.964,18.367-17.047-4.9-19.243-5.632-18.637-19.027.31-6.863,5.649-9.522,2.259-11.507-8.19-4.8.067-3.641-1.521-16.612" transform="translate(-1549.614 -296.425)" fill="#1f506e"/>
        <path id="Path_66" data-name="Path 66" d="M2078.522,481.17l3.384,5.076,6.818-.335,3.15-8.142s-.972-.184-1.424-10.337l-8.511,2.6a16.576,16.576,0,0,1-.151,5.529,9.177,9.177,0,0,1-3.267,5.613" transform="translate(-1566.841 -352.361)" fill="#a86857"/>
        <path id="Path_67" data-name="Path 67" d="M2055.557,506.337c.438,0,8.455-2.682,19.9,1.98,0,0-5.435,31.093-3.1,37.027a62.718,62.718,0,0,1,3.222,11.2l-25.326.314s.354-20.368-.813-27.577,6.114-22.946,6.114-22.946" transform="translate(-1544.825 -381.11)" fill="#a86857"/>
        <path id="Path_68" data-name="Path 68" d="M1964.641,544.663a10.581,10.581,0,0,1-.291-1.572,24.239,24.239,0,0,1,1.175-9.815.022.022,0,0,0,0-.009l.046-.143c.026-.079.057-.2.1-.357a.052.052,0,0,0,0-.012c.037-.142.076-.314.122-.509.013-.064.028-.132.043-.206.652-2.919,2.082-10.252,2.46-11.251a9.836,9.836,0,0,0,.388-1.6c.382-2.208.55-5.72-.737-7.187-1.792-2.042-7.9-3.583-7.9-3.583-1.251,1.96-5.535,6.829-10.851,5.953-3.073-.508-3.548-6.488-3.548-6.488a13.367,13.367,0,0,0-4.147.957s-7.917,4.94-19.1,20.668c-.355.5-1.2.442-3.265.042-2.629-.512-8-.446-16.093-1.634,0,0-.278.2-.354,1.087a13.1,13.1,0,0,1-.363,2.533,100.909,100.909,0,0,0,11,4.308c2.006.637,4.1,1.231,6.1,1.679a31.3,31.3,0,0,0,5.192.779,37.338,37.338,0,0,0,12.724-9.382c.365,5.791,1.173,13.271.677,18.734-.283,3.109-2.411,13.574-1.877,15.314,1.113,3.627,9.656,3.815,17.286,3.436.167-.008.332-.017.5-.028,1.182-.068,2.344-.171,3.428-.292a47.3,47.3,0,0,0,4.969-.792,24.089,24.089,0,0,0,4.879-1.565,5.19,5.19,0,0,0,2.548-2.159c-.734-3.947-4.268-12.544-5.119-16.905" transform="translate(-1434.023 -382.854)" fill="#3b7395"/>
        <path id="Path_71" data-name="Path 71" d="M2003.15,541.841a89.752,89.752,0,0,0,16.1,6.125,33.592,33.592,0,0,0,5.992.964,30.347,30.347,0,0,0,14.177-11.069c11.853-16.6,2.7-18.394,2.7-18.394s-7.918,4.94-19.1,20.669c-.391.55-1.374.426-3.918-.088-2.717-.549-8.126-.484-15.592-1.58a4.175,4.175,0,0,0-.2,1.163c-.168,1.955-.158,2.211-.158,2.211" transform="translate(-1510.024 -391.586)" fill="#3b7395"/>
        <path id="Path_72" data-name="Path 72" d="M1902.329,592.571a100.917,100.917,0,0,0,11,4.308c2.006.637,4.1,1.231,6.1,1.679a14.727,14.727,0,0,0-.3-7.973c-2.629-.513-8.249-.547-16.345-1.736Z" transform="translate(-1434.023 -443.889)" fill="#ea8a8a"/>
        <path id="Path_73" data-name="Path 73" d="M1878.069,584.074a16.917,16.917,0,0,1-3.755-1.252c-1.707-.853-6.258-1.422-7.225-.512s1.024,4.608,5.177,4.722,5.347.8,5.347.8Z" transform="translate(-1407.276 -438.61)" fill="#a86857"/>
        <path id="Path_74" data-name="Path 74" d="M2091.792,475.557c3.518-.285,8.662-8.125,8.662-8.125l-8.511,2.6a16.583,16.583,0,0,1-.151,5.529" transform="translate(-1576.845 -352.361)" opacity="0.1"/>
        <path id="Path_75" data-name="Path 75" d="M2077.937,428.806s10.191,2.047,11.368-4.319,3.285-10.39-3.173-11.965-8.174.619-9.083,2.648-1.733,12.94.888,13.636" transform="translate(-1565.067 -310.563)" fill="#a86857"/>
        <path id="Path_76" data-name="Path 76" d="M2103.576,406.862s-.179,2.159,3.173,5.823,3.327,10.532,3.327,10.532,4.874-10.954,1.86-14.344-8.361-2.011-8.361-2.011" transform="translate(-1585.726 -306.493)" fill="#1f506e"/>
        <path id="Path_77" data-name="Path 77" d="M2084.448,395.442s-5.066-1.7-10.094,3.259c-2.166,2.134-1.839,6.33-.678,8.765,0,0,1.782-5.217,5.024-6.355s5.749-5.668,5.749-5.668" transform="translate(-1562.5 -297.882)" fill="#1f506e"/>
        <path id="Path_78" data-name="Path 78" d="M2085.029,465.145s-.272.755-2.191.413c0,0-1.611-.288-1.463-1.136a5.253,5.253,0,0,1,3.654.723" transform="translate(-1568.985 -350.034)" fill="#fff"/>
        <path id="Path_79" data-name="Path 79" d="M1937.975,515.091s-2.774-.627-3.393-.107-1.828,9.648-1.828,9.648a53.68,53.68,0,0,0,2.2-5.492c.537-1.918,3.018-4.049,3.018-4.049" transform="translate(-1456.958 -388.051)" fill="#90bcd8"/>
        <path id="Path_80" data-name="Path 80" d="M1932.757,524.66c.068-.073,7.018-7.576,7.063-8.3s-1.656-1.524-3.932-1.547c0,0,1.676,1.226,1.606,1.652-.126.762-1.249,1.407-2.131,3.392a42.911,42.911,0,0,1-2.607,4.8" transform="translate(-1456.96 -388.08)" fill="#a5d0eb"/>
        <path id="Path_81" data-name="Path 81" d="M1932.755,538.64c4.515-2.38,13.1-1.461,13.758-2.109.448-.442-.627-1.612-2.091-2.406h0a6.423,6.423,0,0,0-2.193-.753c-1.717-.216-6.1,2.785-8.246,4.351h0c-.716.522-1.184.884-1.223.914l0,0m4.7-2.384a22.65,22.65,0,0,1,4.531-1.21,7.054,7.054,0,0,1,1.944.615s-6.9.953-6.474.6" transform="translate(-1456.958 -402.06)" fill="#80afcc"/>
        <path id="Path_82" data-name="Path 82" d="M1932.755,540.981c4.515-2.38,13.1-1.461,13.758-2.109.448-.442-.628-1.612-2.091-2.406.018.018.9.889.119,1.073-.72.17-6.135-.361-10.558,2.524h0a11.9,11.9,0,0,0-1.223.914l0,0" transform="translate(-1456.958 -404.401)" fill="#90bcd8"/>
        <path id="Path_83" data-name="Path 83" d="M1927.756,540.349s-2.019-2.943-1.641-4.6a5,5,0,0,0,.685.451s.467-.486.5-.548l-.035.063s.719,3.665.489,4.635" transform="translate(-1451.918 -403.773)" fill="#90bcd8"/>
        <path id="Path_84" data-name="Path 84" d="M1900.345,536.136a11.347,11.347,0,0,0-10.109-6.1s1.187.955,1.191,1.343c0,0-1.282.337-1.666.38,0,0,6.367,1.037,9.778,4.463Z" transform="translate(-1424.549 -399.556)" fill="#90bcd8"/>
        <rect id="Rectangle_34" data-name="Rectangle 34" width="20.297" height="19.486" transform="translate(471.979 137.83)" fill="#90bcd8"/>
        <rect id="Rectangle_35" data-name="Rectangle 35" width="20.297" height="19.486" transform="translate(461.832 137.83)" fill="#a5d0eb"/>
        <rect id="Rectangle_36" data-name="Rectangle 36" width="10.577" height="3.379" transform="translate(482.128 135.827)" fill="#80afcc"/>
        <rect id="Rectangle_37" data-name="Rectangle 37" width="20.71" height="3.379" transform="translate(461.418 135.827)" fill="#8ec0df"/>
        <rect id="Rectangle_38" data-name="Rectangle 38" width="1.569" height="21.517" transform="translate(470.688 135.827)" fill="#80afcc"/>
        <rect id="Rectangle_39" data-name="Rectangle 39" width="1.569" height="21.471" transform="translate(486.418 135.827)" fill="#6fa3c2"/>
        <path id="Path_86" data-name="Path 86" d="M1986.56,592.391a8.8,8.8,0,0,1-.149-7.918c-2.616-.529-7.766-.769-14.811-1.766-.314-.3-1.1-1.091-1.141-1.61-.05-.65-2.177-1.988-2.964-2.7,0,0-.729.224-.177,1.181.15.259.446.68.729,1.068l-.306-.2c-.75-.5-6.7-.477-7.733.495s1.669,5.173,4.742,5.173c1.328,0,5.017.509,6.154.67a101.111,101.111,0,0,0,15.656,5.6" transform="translate(-1477.333 -436.012)" fill="#a86857"/>
      </g>
      <path id="Path_87" data-name="Path 87" d="M1474.776,840.975s10.445,3.625,13.886,3.169c0,0,.23-1.762-2.8-3.4s-5.636-7.12-7.28-6.705a15.429,15.429,0,0,0-3.817,1.9Z" transform="translate(-1111.716 -628.698)" fill="#3b7395"/>
      <path id="Path_88" data-name="Path 88" d="M1527.879,771.5s10.911-1.793,13.718-3.834c0,0-.638-1.659-4.082-1.659s-8.348-3.572-9.6-2.424a15.434,15.434,0,0,0-2.451,3.489Z" transform="translate(-1149.936 -575.436)" fill="#3b7395"/>
      <path id="Path_89" data-name="Path 89" d="M1320.377,702.262q-4.461-.141-8.393-.377c-39.825-2.352-40.989-11.208-40.989-11.208-6.623-20.3,19.991-40.45,19.991-40.45s16.149-2.268,15.508,7.224-22.982,28.136-22.982,28.136c7.438.7,19.532,4.879,27.824,8.031,5.289,2.011,9.032,3.6,9.032,3.6a4.952,4.952,0,0,1,.6,2.56,7.7,7.7,0,0,1-.591,2.481" transform="translate(-957.31 -489.978)" fill="#5d95b8"/>
      <path id="Path_91" data-name="Path 91" d="M1371.471,682.129l-.04.01c-34.282,9.258-46.379,9.123-49.863,8.427-1.545-.309-2.633-2.565-2.633-2.565-6.621-20.3,21.608-43.173,21.608-43.173s12.162-.551,15.556,5a6.151,6.151,0,0,1,.853,3.723c-.412,6.113-9.663,14.923-16.2,20.419-3.453,2.905-6.147,4.885-6.377,5.054l-.012.009c11.4-7.038,34.655-1.318,34.655-1.318a7.322,7.322,0,0,1,1.777,1.742,6.336,6.336,0,0,1,.674,2.675" transform="translate(-993.487 -486.075)" fill="#6fa3c2"/>
      <path id="Path_92" data-name="Path 92" d="M1467.752,359.982c-.427,1.481-3.138,10.694-5.472,17.8-1.431,4.343-2.736,7.907-3.289,8.384a33.746,33.746,0,0,1-4.368,2.435,114.573,114.573,0,0,1-11.8,5.046,37.743,37.743,0,0,1-7.305,2.008,8.716,8.716,0,0,1-2.058.151c-3.69-.226-3.891-4.293-3.439-7.631.151-.954.326-1.857.5-2.561.251-1.029.477-1.706.477-1.706s.577-.126,1.556-.326c1.858-.4,5.171-1.079,8.887-1.682a101.421,101.421,0,0,1,10.895-1.255s1.807-3.289,4.091-7.38c2.761-4.97,6.2-11.12,7.832-13.831a1.94,1.94,0,0,0,.3-.879,7.108,7.108,0,0,0,3.188,1.431" transform="translate(-1077.855 -270.284)" fill="#f0acac"/>
      <path id="Path_93" data-name="Path 93" d="M1331.875,291.984c-.3.678-.628,1.33-.929,1.984,0,0,.728,1.681,1.707,4.142a1.048,1.048,0,0,0,.1.251c.176.4.326.829.5,1.28,1,2.611,2.159,5.8,3.012,8.786.025.1.075.2.1.3a34.109,34.109,0,0,1,1.155,5.422,8.738,8.738,0,0,1,.025,2.134l-8.987,6.451-.151-.527c-.753-2.51-4.041-13.605-5.071-21.312a24.439,24.439,0,0,1-.326-4.795s-.728-3.539,3.138-11.522a90.5,90.5,0,0,1,10.267-15.84s.551-.929,1.053-1.857a26.044,26.044,0,0,0,2.894,2.209,2.169,2.169,0,0,0-1.161,1.154,161.517,161.517,0,0,1-6.351,19.4.078.078,0,0,1-.025.05,1.516,1.516,0,0,1-.125.3c-.025.076-.075.151-.1.251-.176.452-.376.9-.577,1.356l-.151.376" transform="translate(-997.279 -201.182)" fill="#f0acac"/>
      <path id="Path_94" data-name="Path 94" d="M1301.24,400.691s-12.153-12.609-22.549-20.278a27.17,27.17,0,0,1-1.1-4.478,5.394,5.394,0,0,0-.3,3.47,33,33,0,0,0-7.629-4.277c-.728-4.23,3.342-8.675,3.342-8.675-3.5,1.417-4.913,6.08-5.376,8.216a4.247,4.247,0,0,0-1.047.034s-.351-14.283,21.464-14.283c8.488,0,7.271-14.746,19.353-13.688,0,0,13.193,2.578,10.73,14.084s1.585,14.084,2.991,16.663-4.575,20.632-19.88,23.211" transform="translate(-954.78 -261.334)" fill="#3b7395"/>
      <path id="Path_95" data-name="Path 95" d="M1407.74,433.926l-12.724,5.038-1.351-5.637a22.969,22.969,0,0,1,.325-5.335,42.647,42.647,0,0,1,1.387-5.806c.017-.055.027-.084.027-.084l.327-.008,1.056-.029,7.151-.184a13.718,13.718,0,0,0-.471,2.974,10.536,10.536,0,0,0,4.271,9.071" transform="translate(-1050.545 -318.024)" fill="#f0acac"/>
      <path id="Path_96" data-name="Path 96" d="M1344.26,456.948s-17.1,9.46-3.978,47.758l27.333,1.49s-11.677-16.247-8.885-21.832,8.377-23.1,8.377-23.1Z" transform="translate(-1006.605 -344.458)" fill="#3a49cd"/>
      <path id="Path_97" data-name="Path 97" d="M1380.864,362.933s-2.381,8-3.525,8.642-16.135,8.332-20.678,8.95a10.035,10.035,0,0,0-2.151.433v0a.354.354,0,0,0-.182.14.164.164,0,0,0-.013.035c-.321.846-4.346,14.556-4.44,18.194-.067,2.536,11.108,18.847,10.977,20.7a1.291,1.291,0,0,1-.113.453c-.63,1.387-3.706,1.269-6.234-.056a40.1,40.1,0,0,0-6.434-2.623c-2.931-.9-6.225-1.5-8.91-.949-5.157,1.058-10.448-.264-12.3-5.951s-1.586-17.326-2.114-19.706-.993-9.848,2.178-14.808h0a.008.008,0,0,1,0-.006,3.217,3.217,0,0,0-.264-2.446c-.662-1.653-5.488-19.046-4.761-24.27a27.317,27.317,0,0,1,3.4-10.9,9.16,9.16,0,0,1,3.659,1.949c1.685,1.5,2.785,3.067,3.051,3.133a33.294,33.294,0,0,0-1.676,4.3c.1.331,6.116,17.393,6.447,18.384,0,0,2.368-.206,2.881.309,0,0-.2,4.894,10.907.837,0,0,.685-.111.718.463,0,0,14.326-2.288,19.31-2.645,0,0,.266-.03,1.807-2.911a24.48,24.48,0,0,1,2.584-4.236,6.335,6.335,0,0,1,5.88,4.588" transform="translate(-996.425 -255.365)" fill="#fff"/>
      <path id="Path_99" data-name="Path 99" d="M1404.606,425.316s-5.957,3.029-9.478,3.137a42.638,42.638,0,0,1,1.387-5.806c.118-.036.237-.069.354-.092a2.774,2.774,0,0,1,.739-.057c.105.006.211.017.318.029,2.956.343,6.68,2.79,6.68,2.79" transform="translate(-1051.682 -318.485)" fill="#ea8a8a"/>
      <path id="Path_100" data-name="Path 100" d="M1386.635,377.486s10.158,5.148,13.266-1.228,6.513-10.005.158-13.561-8.81-1.742-10.365.133-5.622,13.152-3.059,14.655" transform="translate(-1044.656 -271.877)" fill="#f0acac"/>
      <path id="Path_101" data-name="Path 101" d="M1397.209,360.9s3.08,3.063,2.174,5.973.558,8.7,4.527,9.36,8.687-12.754,3.465-15.333-13.756-3.855-16.332-.614a9.284,9.284,0,0,0-1.586,7.337s3.574-6.922,7.752-6.723" transform="translate(-1047.266 -270.137)" fill="#3b7395"/>
      <path id="Path_102" data-name="Path 102" d="M1394.411,416.031s-.418.686-2.23-.031c0,0-1.521-.6-1.208-1.4a5.257,5.257,0,0,1,3.437,1.435" transform="translate(-1048.518 -312.531)" fill="#fff"/>
      <path id="Path_104" data-name="Path 104" d="M1385.45,249.474a11.266,11.266,0,0,0-1.168.89c1.3-2.2,1.925-4.161,1.709-5.1-.089-.384-4.4.746-5.113,2.7-.364,1-1.956,3.962-1.956,3.962l2.436,1.234s.968-.526,1.393-.408a3.517,3.517,0,0,0,2.4-1.262s1.035-2.151.3-2.022" transform="translate(-1039.466 -184.833)" fill="#f0acac"/>
      <path id="Path_105" data-name="Path 105" d="M1569.06,324.793c-1.2.3-4.019,4.677-4,5.466,0,.1,0,.212,0,.318-.153-.391-.322-.806-.443-1.039-.446-.856-.954-.425-.954-.425.152.914.138,3.11.593,3.453s.677,1.75.677,1.75l3.182,1.528s1.783-3.959,2.526-5.123c1.446-2.265-.378-6.232-1.58-5.929" transform="translate(-1178.728 -244.823)" fill="#f0acac"/>
    </g>
    <g id="Group_55" data-name="Group 55" transform="translate(690.837 590.466)">
      <g id="Group_61" data-name="Group 61">
        <path id="Path_106" data-name="Path 106" d="M141.8,175.909s24.445,17.914,30.424,17.482,27.156-13.5,27.156-13.5l-4.48-5.326s-19.178,7.105-22.69,5.146-17.227-18.587-22.982-17.7-11.441,7.455-7.429,13.895" transform="translate(-114.438 -131.977)" fill="#233862"/>
        <path id="Path_107" data-name="Path 107" d="M12.946,898.641H5.639a4.429,4.429,0,0,1-2-3.348c-.357-2.354-3-3.638-3.567-5.564s2.354-4.634,2.354-4.634l.489-.63.509-.654,4.85,1.142s.12,1.155.193,2.626a33.5,33.5,0,0,1,.021,3.364c-.143,2.567.718,5.332,3,5.832,1.687.369,1.611,1.369,1.457,1.866" transform="translate(0 -720.107)" fill="#1f506e"/>
        <path id="Path_108" data-name="Path 108" d="M222.964,926.292H206.253c-.8-.981-.508-4.6-.386-5.782.025-.238.042-.377.042-.377s5.707-4.565,6.491-1.069c.024.109.053.216.084.322.987,3.269,5.417,4.755,7.975,5.169a2.9,2.9,0,0,1,2.5,1.737" transform="translate(-167.61 -747.758)" fill="#1f506e"/>
        <path id="Path_109" data-name="Path 109" d="M175.163,453.685s-.866,10.811-1.885,23.807c-1.384,17.653-3.049,39.337-3.213,43.445-.285,7.133-1.427,18.543-1.427,18.543s-2.709,2.711-8.13,1.568a186.671,186.671,0,0,1-6.211-33.522c-.021-.282-.043-.567-.064-.852-1.284-17.544-3.28-54.487-3.28-54.487Z" transform="translate(-122.992 -368.431)" fill="#fff"/>
        <path id="Path_110" data-name="Path 110" d="M175.163,453.685s-.866,10.811-1.885,23.807L154.3,507.526c-.021-.282-.043-.567-.064-.852-1.284-17.544-3.28-54.487-3.28-54.487Z" transform="translate(-122.992 -368.431)" fill="#e7f4fc" opacity="0.25"/>
        <path id="Path_111" data-name="Path 111" d="M58.892,436.145S43.273,475.3,33,493.7s-13.479,23.535-13.479,23.535-5.884-2.353-6.419-3.958c0,0,3.927-35.522,10.8-44.181,3.886-4.893,8.451-19.577,8.665-24.712s1.391-15.3,1.391-15.3Z" transform="translate(-10.678 -349.608)" fill="#fff"/>
        <path id="Path_112" data-name="Path 112" d="M130.22,101.108c-5.829,2.643-16.935-1.254-16.935-1.254s5.081-4.866,3.738-13.549l5.14,3.211,3.492,2.181A38.409,38.409,0,0,1,125.8,95.9c-.008.708-.028,1.5-.07,2.365a14.605,14.605,0,0,1,4.5,2.841" transform="translate(-92.302 -70.318)" fill="#ffb27d"/>
        <path id="Path_113" data-name="Path 113" d="M144.237,105.812a38.406,38.406,0,0,1,.141,4.205c-3.6-.18-8.286-5.4-8.286-5.4a11.316,11.316,0,0,1,4.654-.988Z" transform="translate(-110.884 -84.434)" fill="#ed975d"/>
        <path id="Path_114" data-name="Path 114" d="M130.98,42.414s-9.809,2.869-11.5-3.267-4.1-9.9,2.092-11.989,8.059-.087,9.122,1.824,2.795,12.528.287,13.432" transform="translate(-95.792 -21.403)" fill="#ffb27d"/>
        <path id="Path_115" data-name="Path 115" d="M132.664,199.383a39.394,39.394,0,0,1,.38,4.659.981.981,0,0,1-.608.32c-2.278.244-8.762,2.306-14.446,2.407a42.1,42.1,0,0,1-13.889-2.257c-.629-.2-2.094-.764-2.142-1.435-.069-.732-.123-1.8-.194-3.149a168.159,168.159,0,0,0-2.3-21.886c-.3-1.7-.558-3.4-.767-5.075-1.552-12.482-.4-23.765,4.128-28.084.39-.355,3.152.606,5.691,1.5a9.985,9.985,0,0,0,6.619,0l2.316,1.6a21.059,21.059,0,0,1,7.816,9.68c1.535,4.032,3.043,11.454,4.313,19.181.575,3.5,1.126,7.038,1.562,10.4l.015.121c.07.33.114.7.155,1.03q.121.9.234,1.764c.473,3.594.854,6.8,1.118,9.222" transform="translate(-79.884 -117.986)" fill="#6fa3c2"/>
        <path id="Path_116" data-name="Path 116" d="M111.872,17.143s1.006-.3.67-1.69-.557-3.244.635-3.038,1.36,1.12,1.768.525.143-2.862,3.547-3.432,4.938.453,6.445-.438,1.3-3.311,1.3-3.311a2.758,2.758,0,0,1-1,1.271s2.217-3.952-1.157-6.071-6.312-.112-8.079.21c-3.891.71-6.395,1.25-7.365,3.98s.42,9.818,3.234,11.994" transform="translate(-88.265 0.001)" fill="#1f506e"/>
        <path id="Path_117" data-name="Path 117" d="M165.095,312.424c-.481.089-8.846,1.591-14.532-2.155-5.855-3.857-12.714-26.723-12.714-26.723s13.151,14.626,13.406,15.2c.214.486,9.7,3.5,12.723,4.454.473,3.594.854,6.8,1.118,9.222" transform="translate(-112.315 -231.027)" fill="#5d95b8"/>
        <g id="Group_62" data-name="Group 62" transform="translate(-334.453 -199.863)">
          <path id="Path_24-2" data-name="Path 24" d="M1768.024,778.747s-7.667-1.733-9.377-.3-5.052,26.662-5.052,26.662,4.674-10.13,6.088-15.177c1.485-5.3,8.341-11.19,8.341-11.19" transform="translate(-1321.903 -586.385)" fill="#90bcd8"/>
          <path id="Path_25-2" data-name="Path 25" d="M1753.6,805.191c.188-.2,19.395-20.938,19.522-22.929s-4.578-4.212-10.868-4.276c0,0,4.633,3.39,4.44,4.566-.347,2.107-3.453,3.888-5.89,9.373a118.446,118.446,0,0,1-7.2,13.267" transform="translate(-1321.908 -586.464)" fill="#a5d0eb"/>
          <path id="Path_26-2" data-name="Path 26" d="M1753.6,843.829c12.477-6.578,36.2-4.036,38.023-5.828,1.238-1.221-1.735-4.456-5.78-6.648h0a17.759,17.759,0,0,0-6.06-2.081c-4.745-.6-16.849,7.7-22.789,12.023l-.006,0c-1.979,1.442-3.272,2.443-3.38,2.527l-.007,0m12.977-6.588c1.175-.988,11.131-3.228,12.521-3.344s5.37,1.7,5.37,1.7-19.067,2.632-17.891,1.644" transform="translate(-1321.906 -625.101)" fill="#80afcc"/>
          <path id="Path_27-2" data-name="Path 27" d="M1753.6,850.3c12.477-6.578,36.2-4.036,38.023-5.828,1.238-1.221-1.735-4.455-5.78-6.648.051.05,2.486,2.455.329,2.964-1.99.47-16.955-1-29.18,6.977l-.006,0a32.918,32.918,0,0,0-3.38,2.526l-.006,0" transform="translate(-1321.906 -631.571)" fill="#90bcd8"/>
          <path id="Path_28-2" data-name="Path 28" d="M1739.782,848.552s-5.581-8.131-4.534-12.714a13.85,13.85,0,0,0,1.892,1.246s1.292-1.342,1.389-1.515l-.1.172s1.986,10.129,1.35,12.81" transform="translate(-1307.975 -629.836)" fill="#90bcd8"/>
          <path id="Path_29-2" data-name="Path 29" d="M1664.026,836.908s-8.094-17.127-27.936-16.846c0,0,3.279,2.64,3.291,3.712,0,0-3.545.932-4.605,1.05,0,0,17.6,2.867,27.024,12.333Z" transform="translate(-1232.334 -618.179)" fill="#90bcd8"/>
          <path id="Path_123-2" data-name="Path 123" d="M0,0H56.1V53.855H0Z" transform="translate(421.145 222.183)" fill="#a5d0eb"/>
          <rect id="Rectangle_23-2" data-name="Rectangle 23" width="56.253" height="53.855" transform="translate(393.097 222.183)" fill="#90bcd8"/>
          <rect id="Rectangle_24-2" data-name="Rectangle 24" width="29.231" height="9.337" transform="translate(449.192 216.648)" fill="#8ec0df"/>
          <path id="Path_122-2" data-name="Path 122" d="M0,0H57.394V9.337H0Z" transform="translate(391.956 216.648)" fill="#80afcc"/>
          <rect id="Rectangle_26-2" data-name="Rectangle 26" width="4.336" height="59.466" transform="translate(417.573 216.648)" fill="#6fa3c2"/>
          <rect id="Rectangle_27-2" data-name="Rectangle 27" width="4.336" height="59.34" transform="translate(461.048 216.648)" fill="#80afcc"/>
        </g>
        <path id="Path_119" data-name="Path 119" d="M367.5,379.588a17.394,17.394,0,0,1-5.916-1.434,10.243,10.243,0,0,1-2.3-1.495l.232-1.446.278-1.727s.17-.027.452-.056.675-.06,1.123-.067a1.464,1.464,0,0,0,1.321-.315,3.124,3.124,0,0,1,2.529-.7c.832.2,2.621.014,2.678.3.14.7-2.467.576-2.771,1.017a.522.522,0,0,0,.027.718l.01.009c1.526,1.539,6.779,2.1,6.569,3.32-.079.457-3.3,1.886-4.227,1.869" transform="translate(-292.732 -303.338)" fill="#ffb27d"/>
        <path id="Path_120" data-name="Path 120" d="M116.208,196.959s12.032,27.815,17.41,30.466,29.914.591,29.914.591l.162-4.748s-21.133-4.185-23.172-7.651-5.465-24.746-10.879-26.89-13.64.647-13.434,8.232" transform="translate(-94.681 -153.2)" fill="#6fa3c2"/>
      </g>
    </g>
  </g>
</svg>
